<svg width="21" height="20" viewBox="0 0 21 20" fill="none" xmlns="http://www.w3.org/2000/svg">
<g clip-path="url(#clip0)">
<path d="M13.7959 10.1027L20.5384 14.3652V5.66016L13.7959 10.1027Z" fill="#4D69E4"/>
<path d="M0.538452 5.66016V14.3652L7.28095 10.1027L0.538452 5.66016Z" fill="#4D69E4"/>
<path d="M19.2884 3.125H1.78843C1.16468 3.125 0.669678 3.59 0.575928 4.18875L10.5384 10.7525L20.5009 4.18875C20.4072 3.59 19.9122 3.125 19.2884 3.125Z" fill="#4D69E4"/>
<path d="M12.651 10.8575L10.8822 12.0225C10.7772 12.0912 10.6585 12.125 10.5385 12.125C10.4185 12.125 10.2997 12.0912 10.1947 12.0225L8.42599 10.8562L0.578491 15.82C0.674741 16.4137 1.16724 16.875 1.78849 16.875H19.2885C19.9097 16.875 20.4022 16.4137 20.4985 15.82L12.651 10.8575Z" fill="#4D69E4"/>
</g>
<defs>
<clipPath id="clip0">
<rect width="20" height="20" fill="white" transform="translate(0.538452)"/>
</clipPath>
</defs>
</svg>
