<svg width="20" height="14" viewBox="0 0 20 14" fill="none" xmlns="http://www.w3.org/2000/svg">
<path fill-rule="evenodd" clip-rule="evenodd" d="M18.75 0H1.25004C0.626287 0 0.131287 0.465 0.0375366 1.06375L10 7.6275L19.9625 1.06375C19.8688 0.465 19.3738 0 18.75 0ZM0 11.2402V2.53516L6.7425 6.97766L0 11.2402ZM20 11.2402L13.2575 6.97766L20 2.53516V11.2402ZM10.3438 8.89769L12.1125 7.73269L19.96 12.6952C19.8638 13.2889 19.3713 13.7502 18.75 13.7502H1.25004C0.628789 13.7502 0.136289 13.2889 0.0400391 12.6952L7.88754 7.73145L9.65629 8.89769C9.76129 8.96644 9.88004 9.00019 10 9.00019C10.12 9.00019 10.2388 8.96644 10.3438 8.89769Z" fill="white"/>
</svg>
